// ----------------------------------------------------------------------------
// MuseScore-Full/Drm-Standard.sfz
// ----------------------------------------------------------------------------

<group>
loop_mode=no_loop
ampeg_attack=0.001
ampeg_release=2.0
amplfo_freq=8.176
volume=0.0
cutoff=19913.0
fil_type=lpf_2p
fillfo_freq=8.176
pitchlfo_freq=8.176

<region>
lokey=27
hikey=27
pitch_keycenter=27
sample=Drm-Standard-samples/High Q.wav
loop_start=1
loop_end=1556
offset=0
volume=-2.382
end=1556

<region>
lokey=28
hikey=28
pitch_keycenter=28
sample=Drm-Standard-samples/Slap.wav
loop_start=8
loop_end=28765
offset=0
volume=-1.588
end=28773

<region>
lokey=29
hikey=29
pitch_keycenter=29
sample=Drm-Standard-samples/Scratch Push.wav
loop_start=8
loop_end=5429
offset=0
volume=-2.382
end=5437

<region>
lokey=30
hikey=30
pitch_keycenter=30
sample=Drm-Standard-samples/Scratch Pull.wav
loop_start=8
loop_end=5036
offset=0
volume=-2.382
end=5044

<region>
lokey=31
hikey=31
pitch_keycenter=31
sample=Drm-Standard-samples/Sticks(R).wav
loop_start=8
loop_end=7996
offset=0
ampeg_decay=0.5
ampeg_release=3.00008
ampeg_sustain=0.001
end=8004

<region>
lokey=31
hikey=31
pitch_keycenter=31
sample=Drm-Standard-samples/Sticks(L).wav
loop_start=8
loop_end=7996
offset=0
ampeg_decay=0.5
ampeg_release=3.00008
ampeg_sustain=0.001
end=8004

<region>
lokey=32
hikey=32
pitch_keycenter=32
sample=Drm-Standard-samples/Square Click.wav
loop_start=3
loop_end=63
offset=0
volume=-3.176
end=1052

<region>
lokey=33
hikey=33
pitch_keycenter=33
sample=Drm-Standard-samples/Metronome Click.wav
loop_start=8
loop_end=431
offset=0
volume=-1.2704
end=439

<region>
lokey=34
hikey=34
pitch_keycenter=34
sample=Drm-Standard-samples/Metronome Bell(L).wav
loop_start=8
loop_end=19715
offset=0
volume=-1.9056
end=19723

<region>
lokey=37
hikey=37
pitch_keycenter=37
sample=Drm-Standard-samples/Rim Tap.wav
loop_start=8
loop_end=63991
offset=0
ampeg_decay=3.00008
ampeg_release=3.00008
ampeg_sustain=0.001
volume=-1.588
end=63999

<region>
lokey=39
hikey=39
pitch_keycenter=39
sample=Drm-Standard-samples/Clap.wav
loop_start=8
loop_end=16887
offset=0
end=16895

<region>
lokey=54
hikey=54
pitch_keycenter=54
sample=Drm-Standard-samples/Tambourine.wav
loop_start=8
loop_end=22647
offset=0
end=22655

<region>
lokey=56
hikey=56
pitch_keycenter=56
sample=Drm-Standard-samples/Cow Bell.wav
loop_start=8
loop_end=16951
offset=0
volume=-0.794
end=16959

<region>
lokey=58
hikey=58
pitch_keycenter=58
sample=Drm-Standard-samples/Vibra Slap.wav
loop_start=8
loop_end=66840
offset=0
ampeg_release=29.9953
end=66848

<group>
loop_mode=no_loop
ampeg_attack=0.001
ampeg_sustain=0.001
amplfo_freq=8.176
volume=0.0
cutoff=19913.0
fileg_release=100.021
fil_type=lpf_2p
fillfo_freq=8.176
pitcheg_release=100.021
pitchlfo_freq=8.176

<region>
lokey=38
hikey=38
pitch_keycenter=38
lovel=121
hivel=127
sample=Drm-Standard-samples/Std Snr 1.wav
loop_start=8
loop_end=20631
offset=0
ampeg_decay=14.9977
ampeg_release=14.9977
cutoff=10002.0
fil_type=lpf_2p
end=20639

<region>
lokey=38
hikey=38
pitch_keycenter=38
lovel=113
hivel=120
sample=Drm-Standard-samples/Std Snr 1.wav
loop_start=8
loop_end=20631
offset=0
ampeg_attack=0.00199994
ampeg_decay=13.0035
ampeg_release=13.0035
cutoff=9501.0
fil_type=lpf_2p
end=20639

<region>
lokey=38
hikey=38
pitch_keycenter=38
lovel=105
hivel=112
sample=Drm-Standard-samples/Std Snr 1.wav
loop_start=8
loop_end=20631
offset=0
ampeg_attack=0.00299998
ampeg_decay=10.998
ampeg_release=10.998
cutoff=8999.0
fil_type=lpf_2p
end=20639

<region>
lokey=38
hikey=38
pitch_keycenter=38
lovel=97
hivel=104
sample=Drm-Standard-samples/Std Snr 1.wav
loop_start=8
loop_end=20631
offset=0
ampeg_attack=0.00399987
ampeg_decay=9.00046
ampeg_release=9.00046
cutoff=8499.0
fil_type=lpf_2p
end=20639

<region>
lokey=38
hikey=38
pitch_keycenter=38
lovel=89
hivel=96
sample=Drm-Standard-samples/Std Snr 1.wav
loop_start=8
loop_end=20631
offset=0
ampeg_attack=0.00499893
ampeg_decay=7.0007
ampeg_release=7.0007
cutoff=7999.0
fil_type=lpf_2p
end=20639

<region>
lokey=38
hikey=38
pitch_keycenter=38
lovel=81
hivel=88
sample=Drm-Standard-samples/Std Snr 1.wav
loop_start=8
loop_end=20631
offset=0
ampeg_attack=0.00599996
ampeg_decay=4.99909
ampeg_release=4.99909
cutoff=7502.0
fil_type=lpf_2p
end=20639

<region>
lokey=38
hikey=38
pitch_keycenter=38
lovel=0
hivel=80
sample=Drm-Standard-samples/Std Snr 1.wav
loop_start=8
loop_end=20631
offset=0
ampeg_attack=0.00700048
ampeg_decay=3.00008
ampeg_release=3.00008
cutoff=7000.0
fil_type=lpf_2p
end=20639

<region>
lokey=40
hikey=40
pitch_keycenter=40
lovel=121
hivel=127
sample=Drm-Standard-samples/Std Snr 2.wav
loop_start=8
loop_end=23223
offset=0
ampeg_decay=14.9977
ampeg_release=14.9977
cutoff=10002.0
fil_type=lpf_2p
end=23231

<region>
lokey=40
hikey=40
pitch_keycenter=40
lovel=113
hivel=120
sample=Drm-Standard-samples/Std Snr 2.wav
loop_start=8
loop_end=23223
offset=0
ampeg_attack=0.00199994
ampeg_decay=13.0035
ampeg_release=13.0035
cutoff=9501.0
fil_type=lpf_2p
end=23231

<region>
lokey=40
hikey=40
pitch_keycenter=40
lovel=105
hivel=112
sample=Drm-Standard-samples/Std Snr 2.wav
loop_start=8
loop_end=23223
offset=0
ampeg_attack=0.00299998
ampeg_decay=10.998
ampeg_release=10.998
cutoff=8999.0
fil_type=lpf_2p
end=23231

<region>
lokey=40
hikey=40
pitch_keycenter=40
lovel=97
hivel=104
sample=Drm-Standard-samples/Std Snr 2.wav
loop_start=8
loop_end=23223
offset=0
ampeg_attack=0.00399987
ampeg_decay=9.00046
ampeg_release=9.00046
cutoff=8499.0
fil_type=lpf_2p
end=23231

<region>
lokey=40
hikey=40
pitch_keycenter=40
lovel=89
hivel=96
sample=Drm-Standard-samples/Std Snr 2.wav
loop_start=8
loop_end=23223
offset=0
ampeg_attack=0.00499893
ampeg_decay=7.0007
ampeg_release=7.0007
cutoff=7999.0
fil_type=lpf_2p
end=23231

<region>
lokey=40
hikey=40
pitch_keycenter=40
lovel=81
hivel=88
sample=Drm-Standard-samples/Std Snr 2.wav
loop_start=8
loop_end=23223
offset=0
ampeg_attack=0.00599996
ampeg_decay=4.99909
ampeg_release=4.99909
cutoff=7502.0
fil_type=lpf_2p
end=23231

<region>
lokey=40
hikey=40
pitch_keycenter=40
lovel=0
hivel=80
sample=Drm-Standard-samples/Std Snr 2.wav
loop_start=8
loop_end=23223
offset=0
ampeg_attack=0.00700048
ampeg_decay=3.00008
ampeg_release=3.00008
cutoff=7000.0
fil_type=lpf_2p
end=23231

<group>
loop_mode=no_loop
ampeg_attack=0.001
amplfo_freq=8.176
volume=0.0
cutoff=19913.0
fil_type=lpf_2p
fillfo_freq=8.176
pitchlfo_freq=8.176

<region>
lokey=67
hikey=67
pitch_keycenter=67
sample=Drm-Standard-samples/High Agogo.wav
loop_start=8
loop_end=12386
offset=0
ampeg_decay=9.99818
ampeg_release=4.0
volume=-1.9056
end=12394

<region>
lokey=68
hikey=68
pitch_keycenter=68
sample=Drm-Standard-samples/Low Agogo.wav
loop_start=8
loop_end=17805
offset=0
ampeg_decay=9.99818
ampeg_release=4.0
volume=-2.382
end=17813

<region>
lokey=69
hikey=69
pitch_keycenter=69
sample=Drm-Standard-samples/Cabasa.wav
loop_start=8
loop_end=7683
offset=0
ampeg_release=4.0
amplfo_freq=5.12977
fillfo_freq=5.12977
pitchlfo_freq=5.12977
end=7691

<region>
lokey=70
hikey=70
pitch_keycenter=70
sample=Drm-Standard-samples/Maracas.wav
loop_start=8
loop_end=4605
offset=0
ampeg_release=5.33936
amplfo_freq=5.12977
fillfo_freq=5.12977
pitchlfo_freq=5.12977
end=4613

<region>
lokey=71
hikey=71
pitch_keycenter=71
sample=Drm-Standard-samples/Short Whistle.wav
loop_start=8
loop_end=8439
offset=0
ampeg_release=0.100018
volume=-1.588
end=8447

<region>
lokey=72
hikey=72
pitch_keycenter=72
sample=Drm-Standard-samples/Long Whistle.wav
loop_start=8
loop_end=19639
offset=0
ampeg_release=0.100018
volume=-1.588
end=19647

<region>
lokey=73
hikey=73
pitch_keycenter=73
sample=Drm-Standard-samples/Guiro Down.wav
loop_start=8
loop_end=9404
offset=0
group=5
off_by=5
ampeg_release=5.33936
volume=-1.588
fileg_release=5.33936
pitcheg_release=5.33936
end=9412

<region>
lokey=74
hikey=74
pitch_keycenter=74
sample=Drm-Standard-samples/Guiro Up.wav
loop_start=8
loop_end=22033
offset=0
group=5
off_by=5
ampeg_release=5.33936
amplfo_freq=5.12977
volume=-0.3176
fileg_release=5.33936
fillfo_freq=5.12977
pitcheg_release=5.33936
pitchlfo_freq=5.12977
end=22041

<region>
lokey=75
hikey=75
pitch_keycenter=75
sample=Drm-Standard-samples/Clave.wav
loop_start=8
loop_end=4567
offset=0
ampeg_release=5.33936
amplfo_freq=5.12977
fileg_release=5.33936
fillfo_freq=5.12977
pitcheg_release=5.33936
pitchlfo_freq=5.12977
end=4575

<region>
lokey=76
hikey=76
pitch_keycenter=76
sample=Drm-Standard-samples/High Woodblock.wav
loop_start=8
loop_end=13367
offset=0
ampeg_release=5.33936
fileg_release=5.33936
pitcheg_release=5.33936
end=13375

<region>
lokey=77
hikey=77
pitch_keycenter=77
sample=Drm-Standard-samples/Low Woodblock.wav
loop_start=8
loop_end=14327
offset=0
ampeg_release=5.33936
fileg_release=5.33936
pitcheg_release=5.33936
end=14335

<region>
lokey=78
hikey=78
pitch_keycenter=78
sample=Drm-Standard-samples/Quica Hi.wav
loop_start=8
loop_end=69111
offset=0
group=4
off_by=4
ampeg_release=5.33936
amplfo_freq=5.12977
volume=-0.794
fillfo_freq=5.12977
pitchlfo_freq=5.12977
end=69119

<region>
lokey=79
hikey=79
pitch_keycenter=79
sample=Drm-Standard-samples/Quica Low.wav
loop_start=8
loop_end=82117
offset=0
group=4
off_by=4
ampeg_release=5.33936
amplfo_freq=5.12977
volume=-0.794
fileg_release=5.33936
fillfo_freq=5.12977
pitcheg_release=5.33936
pitchlfo_freq=5.12977
end=82125

<region>
lokey=80
hikey=80
pitch_keycenter=80
sample=Drm-Standard-samples/Triangle.wav
loop_start=70959
loop_end=72099
offset=0
group=5
off_by=5
ampeg_decay=0.709972
ampeg_release=0.5
ampeg_sustain=0.001
amplfo_delay=0.33294
amplfo_freq=4.2005
fillfo_delay=0.33294
fillfo_freq=4.2005
pitchlfo_delay=0.33294
pitchlfo_freq=4.2005
end=72135

<region>
lokey=81
hikey=81
pitch_keycenter=81
sample=Drm-Standard-samples/Triangle.wav
loop_mode=loop_continuous
loop_start=70959
loop_end=72099
offset=0
group=5
off_by=5
ampeg_decay=9.99818
ampeg_release=4.99909
ampeg_sustain=0.001
end=72135

<region>
lokey=82
hikey=82
pitch_keycenter=82
sample=Drm-Standard-samples/Small Shaker.wav
loop_start=8
loop_end=30419
offset=0
ampeg_release=1.04006
amplfo_freq=5.12977
volume=-0.2382
fileg_release=1.04006
fillfo_freq=5.12977
pitcheg_release=1.04006
pitchlfo_freq=5.12977
end=30427

<region>
lokey=83
hikey=83
pitch_keycenter=83
sample=Drm-Standard-samples/Sleigh Bells.wav
loop_start=8
loop_end=88823
offset=0
ampeg_hold=0.137977
ampeg_release=1.29984
amplfo_freq=5.12977
cutoff=19914.0
fileg_release=1.06008
fil_type=lpf_2p
fillfo_freq=5.12977
pitcheg_release=1.06008
pitchlfo_freq=5.12977
end=88831

<region>
lokey=84
hikey=84
pitch_keycenter=84
sample=Drm-Standard-samples/Bell Tree.wav
loop_mode=loop_continuous
loop_start=249856
loop_end=284672
offset=0
ampeg_decay=59.9906
ampeg_release=50.0107
ampeg_sustain=0.001
end=284927

<region>
lokey=85
hikey=85
pitch_keycenter=85
sample=Drm-Standard-samples/Castanet.wav
loop_start=8
loop_end=2575
offset=0
ampeg_release=9.99818
amplfo_freq=5.12977
fileg_release=5.33936
fillfo_freq=5.12977
pitcheg_release=5.33936
pitchlfo_freq=5.12977
end=2583

<region>
lokey=86
hikey=86
pitch_keycenter=86
sample=Drm-Standard-samples/Short Taiko Hit.wav
loop_start=8
loop_end=63267
offset=0
group=6
off_by=6
ampeg_release=19.9964
amplfo_freq=5.12977
volume=-0.794
fileg_release=5.33936
fillfo_freq=5.12977
pitcheg_release=5.33936
pitchlfo_freq=5.12977
end=63275

<region>
lokey=87
hikey=87
pitch_keycenter=87
sample=Drm-Standard-samples/Long Taiko Hit.wav
loop_start=8
loop_end=82687
offset=0
group=6
off_by=6
ampeg_release=19.9964
volume=-0.794
end=82687

<region>
lokey=87
hikey=87
pitch_keycenter=87
sample=Drm-Standard-samples/Long Taiko Hit.wav
loop_start=8
loop_end=82687
offset=0
group=6
off_by=6
ampeg_release=19.9964
volume=-0.794
cutoff=5121.0
fil_type=lpf_2p
end=82687

<group>
loop_mode=no_loop
ampeg_attack=0.001
ampeg_decay=44.9941
ampeg_hold=7.79923
ampeg_release=19.9964
amplfo_freq=8.176
volume=-0.794
cutoff=19913.0
fileg_depth=12000
fileg_release=100.021
fil_type=lpf_2p
fillfo_freq=8.176
pitcheg_release=100.021
pitchlfo_freq=8.176

<region>
lokey=49
hikey=49
pitch_keycenter=49
sample=Drm-Standard-samples/Crash 6.wav
loop_start=8
loop_end=375821
offset=0
ampeg_release=29.9953
volume=-2.8584
end=375829

<region>
lokey=51
hikey=51
pitch_keycenter=51
sample=Drm-Standard-samples/Ride 4.wav
loop_start=8
loop_end=113911
offset=0
volume=-3.176
end=113919

<region>
lokey=52
hikey=52
pitch_keycenter=52
sample=Drm-Standard-samples/China Crash 1.wav
loop_start=8
loop_end=157943
offset=0
ampeg_decay=39.9927
volume=-2.8584
end=157951

<region>
lokey=53
hikey=53
pitch_keycenter=53
sample=Drm-Standard-samples/Ride Bell 3.wav
loop_start=8
loop_end=144887
offset=0
ampeg_decay=0.001
ampeg_release=29.9953
volume=-3.176
fileg_depth=0
end=144895

<region>
lokey=55
hikey=55
pitch_keycenter=55
sample=Drm-Standard-samples/Splash 1.wav
loop_start=8
loop_end=118934
offset=0
ampeg_decay=39.9927
volume=-2.382
end=118942

<region>
lokey=57
hikey=57
pitch_keycenter=57
sample=Drm-Standard-samples/Crash 7.wav
loop_start=8
loop_end=251257
offset=0
ampeg_release=29.9953
volume=-3.4936
end=251265

<region>
lokey=59
hikey=59
pitch_keycenter=59
sample=Drm-Standard-samples/Ride 3.wav
loop_start=8
loop_end=129783
offset=0
ampeg_release=25.0053
volume=-3.176
end=129791

<group>
loop_mode=no_loop
ampeg_attack=0.001
ampeg_decay=9.99818
ampeg_release=4.0
amplfo_freq=8.176
volume=-1.588
cutoff=19913.0
fileg_release=100.021
fil_type=lpf_2p
fillfo_freq=8.176
pitcheg_release=100.021
pitchlfo_freq=8.176

<region>
lokey=60
hikey=60
pitch_keycenter=60
sample=Drm-Standard-samples/Bongo Rim.wav
loop_start=8
loop_end=13879
offset=0
volume=-1.588
end=13887

<region>
lokey=61
hikey=61
pitch_keycenter=61
sample=Drm-Standard-samples/Low Bongo.wav
loop_start=8
loop_end=17143
offset=0
volume=-1.588
end=17151

<region>
lokey=62
hikey=62
pitch_keycenter=62
sample=Drm-Standard-samples/Closed Slap.wav
loop_start=8
loop_end=12023
offset=0
volume=-1.588
fileg_delay=0.100018
pitcheg_delay=0.100018
end=12031

<region>
lokey=63
hikey=63
pitch_keycenter=63
sample=Drm-Standard-samples/High Conga.wav
loop_start=8
loop_end=31252
offset=0
volume=-1.588
fileg_delay=0.100018
pitcheg_delay=0.100018
end=31260

<region>
lokey=64
hikey=64
pitch_keycenter=64
sample=Drm-Standard-samples/Low Tumba.wav
loop_start=8
loop_end=28151
offset=0
volume=-1.588
fileg_delay=0.100018
pitcheg_delay=0.100018
end=28159

<region>
lokey=65
hikey=65
pitch_keycenter=65
sample=Drm-Standard-samples/High Timbale.wav
loop_start=8
loop_end=65399
offset=0
ampeg_release=9.99818
volume=-0.794
end=65407

<region>
lokey=66
hikey=66
pitch_keycenter=66
sample=Drm-Standard-samples/Low Timbale.wav
loop_start=8
loop_end=70647
offset=0
ampeg_release=9.99818
volume=-1.2704
fileg_delay=0.100018
fileg_attack=9.50266
fileg_depth=-6000
pitcheg_delay=0.100018
pitcheg_attack=9.50266
end=70655

<group>
pitch_keycenter=36
loop_mode=no_loop
ampeg_attack=0.001
ampeg_sustain=0.001
amplfo_freq=8.176
volume=0.0
cutoff=19913.0
fileg_release=100.021
fil_type=lpf_2p
fillfo_freq=8.176
pitcheg_release=100.021
pitchlfo_freq=8.176

<region>
lokey=35
hikey=36
lovel=121
hivel=127
sample=Drm-Standard-samples/Std Kick.wav
loop_start=8
loop_end=12453
offset=0
ampeg_decay=14.9977
ampeg_release=14.9977
cutoff=7999.0
fil_type=lpf_2p
end=12461

<region>
lokey=35
hikey=36
lovel=113
hivel=120
sample=Drm-Standard-samples/Std Kick.wav
loop_start=8
loop_end=12453
offset=0
ampeg_attack=0.00199994
ampeg_decay=13.0035
ampeg_release=13.0035
cutoff=7502.0
tune=-1
fil_type=lpf_2p
end=12461

<region>
lokey=35
hikey=36
lovel=105
hivel=112
sample=Drm-Standard-samples/Std Kick.wav
loop_start=8
loop_end=12453
offset=0
ampeg_attack=0.00299998
ampeg_decay=10.998
ampeg_release=10.998
cutoff=7000.0
tune=-2
fil_type=lpf_2p
end=12461

<region>
lokey=35
hikey=36
lovel=97
hivel=104
sample=Drm-Standard-samples/Std Kick.wav
loop_start=8
loop_end=12453
offset=0
ampeg_attack=0.00399987
ampeg_decay=9.00046
ampeg_release=9.00046
cutoff=6501.0
tune=-3
fil_type=lpf_2p
end=12461

<region>
lokey=35
hikey=36
lovel=89
hivel=96
sample=Drm-Standard-samples/Std Kick.wav
loop_start=8
loop_end=12453
offset=0
ampeg_attack=0.00499893
ampeg_decay=7.0007
ampeg_release=7.0007
cutoff=5999.0
tune=-4
fil_type=lpf_2p
end=12461

<region>
lokey=35
hikey=36
lovel=81
hivel=88
sample=Drm-Standard-samples/Std Kick.wav
loop_start=8
loop_end=12453
offset=0
ampeg_attack=0.00599996
ampeg_decay=4.99909
ampeg_release=4.99909
cutoff=5501.0
tune=-5
fil_type=lpf_2p
end=12461

<region>
lokey=35
hikey=36
lovel=0
hivel=80
sample=Drm-Standard-samples/Std Kick.wav
loop_start=8
loop_end=12453
offset=0
ampeg_attack=0.00700048
ampeg_decay=3.00008
ampeg_release=3.00008
cutoff=5001.0
tune=-6
fil_type=lpf_2p
end=12461

<group>
loop_mode=no_loop
ampeg_attack=0.001
ampeg_hold=9.92912
ampeg_release=29.007
ampeg_sustain=0.001
amplfo_freq=8.176
volume=0.0
cutoff=7999.0
tune=-5
fil_type=lpf_2p
fillfo_freq=8.176
pitchlfo_freq=8.176

<region>
lokey=41
hikey=41
pitch_keycenter=41
sample=Drm-Standard-samples/Low Flr Studio.wav
loop_start=8
loop_end=43767
offset=0
volume=-1.1116
end=43775

<region>
lokey=43
hikey=43
pitch_keycenter=43
sample=Drm-Standard-samples/Flr Studio.wav
loop_start=8
loop_end=36727
offset=0
volume=-1.1116
end=36735

<region>
lokey=45
hikey=45
pitch_keycenter=45
sample=Drm-Standard-samples/Low Studio.wav
loop_start=8
loop_end=51319
offset=0
end=51327

<region>
lokey=47
hikey=47
pitch_keycenter=47
sample=Drm-Standard-samples/Md Studio(L).wav
loop_start=8
loop_end=44535
offset=0
end=44543

<region>
lokey=48
hikey=48
pitch_keycenter=48
sample=Drm-Standard-samples/MdHi Studio(L).wav
loop_start=8
loop_end=41786
offset=0
end=41794

<region>
lokey=50
hikey=50
pitch_keycenter=50
sample=Drm-Standard-samples/Hi Studio.wav
loop_start=8
loop_end=44151
offset=0
end=44159

<group>
loop_mode=no_loop
group=1
off_by=1
ampeg_attack=0.001
ampeg_hold=4.99909
ampeg_release=29.007
ampeg_sustain=0.001
amplfo_freq=8.176
volume=0.0
cutoff=19913.0
resonance=10.0
fil_type=lpf_2p
fillfo_freq=8.176
pitchlfo_freq=8.176

<region>
lokey=42
hikey=42
pitch_keycenter=42
sample=Drm-Standard-samples/Hi-Hat Closed.wav
loop_start=8
loop_end=31351
offset=0
ampeg_decay=1.50004
ampeg_hold=0.001
ampeg_release=1.50004
volume=-1.1116
end=31359

<region>
lokey=44
hikey=44
pitch_keycenter=44
sample=Drm-Standard-samples/Hi-Hat Foot.wav
loop_start=8
loop_end=22519
offset=0
volume=-1.1116
end=22527

<region>
lokey=46
hikey=46
pitch_keycenter=46
sample=Drm-Standard-samples/Hi-Hat Half-Open.wav
loop_start=8
loop_end=139661
offset=0
volume=0.0
end=139669

